HIERARCHY
ROOT Hips
{
  OFFSET 0 0 0
  CHANNELS 6 Xposition Yposition Zposition Zrotation Yrotation Xrotation
  JOINT LeftThigh
  {
    OFFSET 8.409438 0 -5.917753
    CHANNELS 3 Zrotation Yrotation Xrotation
    JOINT LeftLeg
    {
      OFFSET 0 0 -42.358652
      CHANNELS 3 Zrotation Yrotation Xrotation
      JOINT LeftFoot
      {
        OFFSET 0 0 -39.357303
        CHANNELS 3 Zrotation Yrotation Xrotation
      }
    }
  }
  JOINT RightThigh
  {
    OFFSET -8.409438 0 -5.917753
    CHANNELS 3 Zrotation Yrotation Xrotation
    JOINT RightLeg
    {
      OFFSET 0 0 -42.358652
      CHANNELS 3 Zrotation Yrotation Xrotation
      JOINT RightFoot
      {
        OFFSET 0 0 -39.357303
        CHANNELS 3 Zrotation Yrotation Xrotation
      }
    }
  }
  JOINT SpineLow
  {
    OFFSET 0 0 4.719101
    CHANNELS 3 Zrotation Yrotation Xrotation
    JOINT SpineMid
    {
      OFFSET 0 0 12.899191
      CHANNELS 3 Zrotation Yrotation Xrotation
      JOINT Chest
      {
        OFFSET 0 0 12.899191
        CHANNELS 3 Zrotation Yrotation Xrotation
        JOINT LeftShoulder
        {
          OFFSET 7.550562 1.41573 9.438202
          CHANNELS 3 Zrotation Yrotation Xrotation
          JOINT LeftArm
          {
            OFFSET 9.155056 0 4.247191
            CHANNELS 3 Zrotation Yrotation Xrotation
            JOINT LeftForearm
            {
              OFFSET 0 0 25.771955
              CHANNELS 3 Zrotation Yrotation Xrotation
              JOINT LeftHand
              {
                OFFSET 0 0 25.197169
                CHANNELS 3 Zrotation Yrotation Xrotation
              }
            }
          }
        }
        JOINT RightShoulder
        {
          OFFSET -7.550562 1.41573 9.438202
          CHANNELS 3 Zrotation Yrotation Xrotation
          JOINT RightArm
          {
            OFFSET -9.155056 0 4.247191
            CHANNELS 3 Zrotation Yrotation Xrotation
            JOINT RightForearm
            {
              OFFSET 0 0 -25.771955
              CHANNELS 3 Zrotation Yrotation Xrotation
              JOINT RightHand
              {
                OFFSET 0 0 -25.197169
                CHANNELS 3 Zrotation Yrotation Xrotation
              }
            }
          }
        }
        JOINT Neck
        {
          OFFSET 0 0 15.101124
          CHANNELS 3 Zrotation Yrotation Xrotation
          JOINT Head
          {
            OFFSET 0 0 11.325843
            CHANNELS 3 Zrotation Yrotation Xrotation
            End Site
            {
              OFFSET 0 0 14.157303
            }
          }
        }
      }
    }
  }
}
MOTION
Frames: 7
Frame Time: 0.0
0.0  101.685394  0.0  -3.67132  2.284655  -122.146988  30.454843  -13.822127  -87.841128  -1.7614  18.646708  45.985334  -5.674708  -17.939654  3.103862  -5.652602  -9.440303  2.295384  10.639657  4.762787  39.554004  3.394667  4.451547  4.865432  -3.282789  1.348569  5.551178  -8.621632  4.407035  14.978457  -8.621632  4.407035  14.978458  -5.677594  25.989081  8.808362  -157.227353  45.943475  -116.682296  -42.265576  -11.593875  106.610817  70.058818  -2.988122  -31.401239  15.371071  -1.773089  24.84728  44.453557  38.806763  17.759487  30.783302  18.716612  -113.572149  53.480912  8.119726  9.150759  2.971979  3.336731  2.54667  2.214482  2.51505  1.893273  
0.0  101.685394  0.0  -3.802166  1.959808  -122.305925  31.437696  -13.534756  -86.863535  0.340622  18.174493  52.802747  -7.885549  -17.411714  2.178618  -5.521145  -10.051117  2.40673  11.581131  4.724546  40.075162  2.711131  4.569375  4.598882  -3.441947  1.248793  5.488504  -9.080695  4.163624  14.807322  -9.080695  4.163624  14.807321  -4.473261  27.269485  9.039834  -157.952638  46.811951  -116.792441  -42.704627  -13.019721  106.362422  70.213908  -3.129247  -31.010111  16.329551  -1.46776  25.859453  42.881917  38.504928  16.666142  31.013765  18.325805  -112.773012  53.57041  8.25617  9.42971  3.982347  3.756004  2.710272  2.969082  2.834863  2.00757  
0.0  101.685394  0.0  -3.417506  1.463691  -122.615246  32.78062  -14.031276  -86.697569  1.918048  19.015886  59.903311  -7.773028  -16.709564  1.475466  -4.289302  -10.093272  2.678319  11.359052  4.524114  40.166028  2.255587  4.706047  4.585012  -3.501419  1.244122  5.587413  -9.236505  4.177531  15.073849  -9.236505  4.177531  15.073848  -3.756282  28.151512  8.395785  -158.588535  47.719419  -116.733821  -42.970705  -13.903499  105.915556  70.266412  -3.20958  -30.450074  16.965836  -1.171883  25.849819  41.855685  38.332911  15.674439  30.929883  17.854853  -111.873403  53.58377  8.384721  9.662767  4.805394  4.04808  2.469227  3.586236  3.055747  1.819406  
0.0  101.685394  0.0  -2.800554  1.367909  -123.025191  33.529485  -15.9595  -86.95901  5.205521  20.040955  67.036089  -6.985857  -15.929132  1.359403  -3.212671  -9.466554  3.271788  10.558789  4.406129  39.888568  2.292928  4.718045  4.604796  -3.415703  1.347205  5.725184  -8.970575  4.455923  15.444194  -8.970576  4.455923  15.444194  -3.896293  28.136201  7.937375  -159.05184  48.285629  -116.494355  -42.957697  -14.132902  105.339193  70.139483  -3.207943  -29.627654  16.492266  -1.360376  25.552975  41.385776  38.150957  14.720836  30.611901  17.264996  -110.841976  53.466691  8.421744  9.947445  4.966918  3.886148  2.286712  3.709261  2.933463  1.682881  
0.0  101.685394  0.0  -2.166649  1.769993  -123.259785  32.54279  -19.723649  -86.855608  10.203077  19.990219  73.933474  -5.652135  -14.668823  1.090243  -2.728411  -8.392607  3.7188  9.87304  4.463048  39.657566  2.753982  4.452481  4.551035  -3.224959  1.484439  5.764505  -8.417973  4.788928  15.551127  -8.417972  4.788928  15.551126  -4.670361  27.569609  8.258571  -159.520772  48.466534  -116.354534  -42.777993  -13.85942  104.772328  69.878565  -3.174763  -28.591423  15.027655  -2.152109  25.362393  41.449845  37.754151  14.203334  30.21241  16.560791  -109.645123  53.163862  8.415737  10.238894  4.529741  3.41657  2.470743  3.382538  2.58095  1.827278  
0.0  101.685394  0.0  -1.734171  2.487939  -123.147504  30.017526  -24.339534  -86.053686  15.653201  19.627571  80.237985  -3.341383  -13.038737  0.553789  -2.892413  -7.171409  3.794625  9.515898  4.304092  39.349915  3.075934  4.122596  4.499962  -2.967691  1.62198  5.629899  -7.69841  5.087236  15.190218  -7.69841  5.087236  15.190217  -5.592743  26.577248  9.687779  -160.249604  48.349109  -116.610722  -42.62569  -13.263179  104.33355  69.693491  -3.209942  -27.544767  13.052059  -3.447246  25.743706  41.616629  37.009846  13.845204  29.988461  15.710416  -108.355487  52.790087  8.455549  10.569921  3.727753  2.680931  3.175924  2.781453  2.03022  2.36525  
0.0  101.685394  0.0  -1.576468  3.274212  -122.884143  27.293429  -27.90584  -84.473029  19.972456  19.613278  85.742063  -0.869753  -11.370851  0.067304  -3.435949  -6.230786  3.766631  9.330462  4.131315  38.898388  3.485932  3.862312  4.541079  -2.814084  1.718865  5.511194  -7.269326  5.302847  14.869712  -7.269326  5.302847  14.869712  -6.242179  25.525779  10.763145  -161.314202  48.089376  -117.381702  -42.574985  -12.572125  104.051323  69.70621  -3.369699  -26.775219  11.658848  -4.576794  25.802622  41.734943  36.133775  13.546428  30.056586  14.70628  -107.16108  52.425463  8.596819  11.02046  3.134919  1.99354  3.673716  2.339065  1.514109  2.744866  
